<svg width="39" height="10" viewBox="0 0 39 10" fill="none" xmlns="http://www.w3.org/2000/svg">
<g clip-path="url(#clip0_1_174)">
<path d="M4.3686 3.383L6.26573 9.75032L8.19236 3.383H4.3686Z" fill="#98D7FD" style="fill:#98D7FD;fill:color(display-p3 0.5961 0.8431 0.9922);fill-opacity:1;"/>
<path d="M8.19236 3.38301L6.26573 0.260132L4.3686 3.38301H8.19236Z" fill="#D2F1F9" style="fill:#D2F1F9;fill:color(display-p3 0.8235 0.9451 0.9765);fill-opacity:1;"/>
<path d="M9.56461 0.260132H6.26573L8.19236 3.38301L9.56461 0.260132Z" fill="#6AC3F0" style="fill:#6AC3F0;fill:color(display-p3 0.4157 0.7647 0.9412);fill-opacity:1;"/>
<path d="M6.26573 9.75032L11.8895 3.383H8.19236L6.26573 9.75032Z" fill="#40A6DD" style="fill:#40A6DD;fill:color(display-p3 0.2510 0.6510 0.8667);fill-opacity:1;"/>
<path d="M8.19236 3.38301H11.8895L9.56461 0.260132L8.19236 3.38301Z" fill="#93D5EF" style="fill:#93D5EF;fill:color(display-p3 0.5765 0.8353 0.9373);fill-opacity:1;"/>
<path d="M6.26573 0.260132H2.96685L4.3686 3.38301L6.26573 0.260132Z" fill="#83D0FE" style="fill:#83D0FE;fill:color(display-p3 0.5137 0.8157 0.9961);fill-opacity:1;"/>
<path d="M0.641861 3.383L6.26573 9.75032L4.3686 3.383H0.641861Z" fill="#61C4F7" style="fill:#61C4F7;fill:color(display-p3 0.3804 0.7686 0.9686);fill-opacity:1;"/>
<path d="M2.96685 0.260132L0.641861 3.38301H4.3686L2.96685 0.260132Z" fill="#B9E4FC" style="fill:#B9E4FC;fill:color(display-p3 0.7255 0.8941 0.9882);fill-opacity:1;"/>
</g>
<g clip-path="url(#clip1_1_174)">
<path d="M17.728 3.383L19.6251 9.75032L21.5517 3.383H17.728Z" fill="#98D7FD" style="fill:#98D7FD;fill:color(display-p3 0.5961 0.8431 0.9922);fill-opacity:1;"/>
<path d="M21.5517 3.38301L19.6251 0.260132L17.728 3.38301H21.5517Z" fill="#D2F1F9" style="fill:#D2F1F9;fill:color(display-p3 0.8235 0.9451 0.9765);fill-opacity:1;"/>
<path d="M22.924 0.260132H19.6251L21.5517 3.38301L22.924 0.260132Z" fill="#6AC3F0" style="fill:#6AC3F0;fill:color(display-p3 0.4157 0.7647 0.9412);fill-opacity:1;"/>
<path d="M19.6251 9.75032L25.2489 3.383H21.5517L19.6251 9.75032Z" fill="#40A6DD" style="fill:#40A6DD;fill:color(display-p3 0.2510 0.6510 0.8667);fill-opacity:1;"/>
<path d="M21.5517 3.38301H25.2489L22.924 0.260132L21.5517 3.38301Z" fill="#93D5EF" style="fill:#93D5EF;fill:color(display-p3 0.5765 0.8353 0.9373);fill-opacity:1;"/>
<path d="M19.6251 0.260132H16.3262L17.728 3.38301L19.6251 0.260132Z" fill="#83D0FE" style="fill:#83D0FE;fill:color(display-p3 0.5137 0.8157 0.9961);fill-opacity:1;"/>
<path d="M14.0012 3.383L19.6251 9.75032L17.728 3.383H14.0012Z" fill="#61C4F7" style="fill:#61C4F7;fill:color(display-p3 0.3804 0.7686 0.9686);fill-opacity:1;"/>
<path d="M16.3262 0.260132L14.0012 3.38301H17.728L16.3262 0.260132Z" fill="#B9E4FC" style="fill:#B9E4FC;fill:color(display-p3 0.7255 0.8941 0.9882);fill-opacity:1;"/>
</g>
<g clip-path="url(#clip2_1_174)">
<path d="M31.0873 3.383L32.9845 9.75032L34.9111 3.383H31.0873Z" fill="#98D7FD" style="fill:#98D7FD;fill:color(display-p3 0.5961 0.8431 0.9922);fill-opacity:1;"/>
<path d="M34.9111 3.38301L32.9845 0.260132L31.0873 3.38301H34.9111Z" fill="#D2F1F9" style="fill:#D2F1F9;fill:color(display-p3 0.8235 0.9451 0.9765);fill-opacity:1;"/>
<path d="M36.2834 0.260132H32.9845L34.9111 3.38301L36.2834 0.260132Z" fill="#6AC3F0" style="fill:#6AC3F0;fill:color(display-p3 0.4157 0.7647 0.9412);fill-opacity:1;"/>
<path d="M32.9845 9.75032L38.6083 3.383H34.9111L32.9845 9.75032Z" fill="#40A6DD" style="fill:#40A6DD;fill:color(display-p3 0.2510 0.6510 0.8667);fill-opacity:1;"/>
<path d="M34.9111 3.38301H38.6083L36.2834 0.260132L34.9111 3.38301Z" fill="#93D5EF" style="fill:#93D5EF;fill:color(display-p3 0.5765 0.8353 0.9373);fill-opacity:1;"/>
<path d="M32.9845 0.260132H29.6856L31.0873 3.38301L32.9845 0.260132Z" fill="#83D0FE" style="fill:#83D0FE;fill:color(display-p3 0.5137 0.8157 0.9961);fill-opacity:1;"/>
<path d="M27.3606 3.383L32.9845 9.75032L31.0873 3.383H27.3606Z" fill="#61C4F7" style="fill:#61C4F7;fill:color(display-p3 0.3804 0.7686 0.9686);fill-opacity:1;"/>
<path d="M29.6856 0.260132L27.3606 3.38301H31.0873L29.6856 0.260132Z" fill="#B9E4FC" style="fill:#B9E4FC;fill:color(display-p3 0.7255 0.8941 0.9882);fill-opacity:1;"/>
</g>
<defs>
<clipPath id="clip0_1_174">
<rect width="11.2476" height="9.4902" fill="white" style="fill:white;fill-opacity:1;" transform="translate(0.641861 0.260132)"/>
</clipPath>
<clipPath id="clip1_1_174">
<rect width="11.2476" height="9.4902" fill="white" style="fill:white;fill-opacity:1;" transform="translate(14.0012 0.260132)"/>
</clipPath>
<clipPath id="clip2_1_174">
<rect width="11.2476" height="9.4902" fill="white" style="fill:white;fill-opacity:1;" transform="translate(27.3606 0.260132)"/>
</clipPath>
</defs>
</svg>
